<svg width="60" height="60" viewBox="0 0 60 60" fill="none" xmlns="http://www.w3.org/2000/svg">
<rect width="60" height="60" rx="10" fill="white"/>
<g clip-path="url(#clip0_654_267)">
<path d="M17 14C17 12.8954 17.8954 12 19 12H32.5956C33.6386 12 34.6402 12.4073 35.3872 13.1352L40.7916 18.4014C41.5642 19.1543 42 20.1874 42 21.2662V35.7715C42 35.9761 41.9215 36.173 41.7808 36.3216L39.2917 38.9492C38.9601 39.2992 39.0112 39.8608 39.4004 40.1453L41.672 41.8054C41.8782 41.9561 42 42.196 42 42.4513V47.2C42 47.6418 41.6418 48 41.2 48H35.0222C34.5804 48 34.2222 47.6418 34.2222 47.2V44.4692C34.2222 44.0273 33.8641 43.6692 33.4222 43.6692H26.6889C26.2471 43.6692 25.8889 43.311 25.8889 42.8692V36.0902H19C17.8954 36.0902 17 35.1948 17 34.0902V30.3647C17 30.0885 17.2239 29.8647 17.5 29.8647H25.3889C25.665 29.8647 25.8889 30.0885 25.8889 30.3647V36.0902H33.4222C33.8641 36.0902 34.2222 35.7321 34.2222 35.2902V21.5789C34.2222 20.4744 33.3268 19.5789 32.2222 19.5789H19C17.8954 19.5789 17 18.6835 17 17.5789V14Z" fill="url(#paint0_linear_654_267)"/>
</g>
<defs>
<linearGradient id="paint0_linear_654_267" x1="17" y1="12" x2="36.8052" y2="40.6868" gradientUnits="userSpaceOnUse">
<stop stop-color="#182DCF"/>
<stop offset="1" stop-color="#0393FF"/>
</linearGradient>
<clipPath id="clip0_654_267">
<rect width="25" height="36" fill="white" transform="translate(17 12)"/>
</clipPath>
</defs>
</svg>
