<svg width="33" height="48" viewBox="0 0 33 48" fill="none" xmlns="http://www.w3.org/2000/svg">
<path d="M0 1C0 0.447716 0.447715 0 1 0H22.3238C22.5862 0 22.8382 0.103194 23.0252 0.287313L32.7015 9.81144C32.8925 9.99941 33 10.2562 33 10.5241V31.7248C33 31.9789 32.9033 32.2235 32.7294 32.4088L29.3695 35.9915C28.9599 36.4282 29.0233 37.1245 29.505 37.4801L32.5939 39.7604C32.8493 39.9489 33 40.2475 33 40.5649V47C33 47.5523 32.5523 48 32 48H23.7333C23.181 48 22.7333 47.5523 22.7333 47V43.2256C22.7333 42.6733 22.2856 42.2256 21.7333 42.2256H12.7333C12.181 42.2256 11.7333 41.7778 11.7333 41.2256V32.1203H1C0.447715 32.1203 0 31.6726 0 31.1203V24.8195C0 24.2673 0.447715 23.8195 1 23.8195H10.7333C11.2856 23.8195 11.7333 24.2673 11.7333 24.8195V32.1203H21.7333C22.2856 32.1203 22.7333 31.6726 22.7333 31.1203V11.1053C22.7333 10.553 22.2856 10.1053 21.7333 10.1053H1C0.447716 10.1053 0 9.65755 0 9.10526V1Z" fill="url(#paint0_linear_378_99)"/>
<defs>
<linearGradient id="paint0_linear_378_99" x1="16.5" y1="0" x2="16.5" y2="48" gradientUnits="userSpaceOnUse">
<stop stop-color="#182DCF"/>
<stop offset="1" stop-color="#0393FF"/>
</linearGradient>
</defs>
</svg>
