<svg width="25" height="36" viewBox="0 0 25 36" fill="none" xmlns="http://www.w3.org/2000/svg">
<path d="M0 2C0 0.89543 0.895431 0 2 0H15.5956C16.6386 0 17.6402 0.407337 18.3872 1.13519L23.7916 6.40141C24.5642 7.15431 25 8.1874 25 9.26622V23.7715C25 23.9761 24.9215 24.173 24.7808 24.3216L22.2917 26.9492C21.9601 27.2992 22.0112 27.8608 22.4004 28.1453L24.672 29.8054C24.8782 29.9561 25 30.196 25 30.4513V35.2C25 35.6418 24.6418 36 24.2 36H18.0222C17.5804 36 17.2222 35.6418 17.2222 35.2V32.4692C17.2222 32.0273 16.8641 31.6692 16.4222 31.6692H9.68889C9.24706 31.6692 8.88889 31.311 8.88889 30.8692V24.0902H2C0.895431 24.0902 0 23.1948 0 22.0902V18.3647C0 18.0885 0.223858 17.8647 0.5 17.8647H8.38889C8.66503 17.8647 8.88889 18.0885 8.88889 18.3647V24.0902H16.4222C16.8641 24.0902 17.2222 23.7321 17.2222 23.2902V9.57895C17.2222 8.47438 16.3268 7.57895 15.2222 7.57895H2C0.89543 7.57895 0 6.68352 0 5.57895V2Z" fill="url(#paint0_linear_378_99)"/>
<defs>
<linearGradient id="paint0_linear_378_99" x1="0" y1="0" x2="19.8052" y2="28.6868" gradientUnits="userSpaceOnUse">
<stop stop-color="#182DCF"/>
<stop offset="1" stop-color="#0393FF"/>
</linearGradient>
</defs>
</svg>
