<svg width="25" height="36" viewBox="0 0 25 36" fill="none" xmlns="http://www.w3.org/2000/svg">
<path d="M0 0.5C0 0.223858 0.223858 0 0.5 0H17.0189C17.1493 0 17.2745 0.0509171 17.3678 0.141899L24.8489 7.43176C24.9455 7.52587 25 7.655 25 7.78986V23.891C25 24.0189 24.951 24.142 24.863 24.2349L22.0573 27.1966C21.8501 27.4154 21.882 27.7664 22.1253 27.9442L24.795 29.8953C24.9238 29.9895 25 30.1394 25 30.299V35.5C25 35.7761 24.7761 36 24.5 36H17.7222C17.4461 36 17.2222 35.7761 17.2222 35.5V32.1692C17.2222 31.893 16.9984 31.6692 16.7222 31.6692H9.38889C9.11275 31.6692 8.88889 31.4453 8.88889 31.1692V24.0902H0.5C0.223858 24.0902 0 23.8664 0 23.5902V18.3647C0 18.0885 0.223858 17.8647 0.5 17.8647H8.38889C8.66503 17.8647 8.88889 18.0885 8.88889 18.3647V24.0902H16.7222C16.9984 24.0902 17.2222 23.8664 17.2222 23.5902V8.07895C17.2222 7.80281 16.9984 7.57895 16.7222 7.57895H0.5C0.223857 7.57895 0 7.35509 0 7.07895V0.5Z" fill="url(#paint0_linear_378_99)"/>
<defs>
<linearGradient id="paint0_linear_378_99" x1="0" y1="0" x2="19.8052" y2="28.6868" gradientUnits="userSpaceOnUse">
<stop stop-color="#182DCF"/>
<stop offset="1" stop-color="#0393FF"/>
</linearGradient>
</defs>
</svg>
